# xmcd
#
# Track frame offsets:
#	150
#	6230
#	18352
#	30715
#	42300
#	54880
#	67437
#	81077
#	93505
#	105265
#	116917
#	128515
#	139267
#	150247
#
# Disc length: 2174 seconds
#
# Revision: 0
# Processed by: cddbd v1.5.2PL0 Copyright (c) Steve Scherf et al.
# Submitted via: audiograbber 1.83.01
#
DISCID=af087c0e
DTITLE=Various Artist - Country And Western - CD 1 (1996)
DYEAR=1996
DGENRE=Country
TTITLE0=Jim Reeves - Have I Told You Lately That I Love You
TTITLE1=Frankie Laine - High Noon
TTITLE2=Lynn Anderson - Stand By Your Man
TTITLE3=Dolly Parton - Making Believe
TTITLE4=Claude King - Wolferin Mountain
TTITLE5=Johnny Paycheck - Take This Job And Shove It
TTITLE6=Tammy Wynette - Till I Can Make It On My Own
TTITLE7=Billie Jo Spears - The Chetin' Kind
TTITLE8=Don Gibson - I Can't Stop Lovin' You
TTITLE9=Roger Miller - Little Green Apples
TTITLE10=Patsy Cline - I've Loved And Lost Again
TTITLE11=Donna Fargo - Wishful Thinking
TTITLE12=Johnny Russell - Blue Eyes Crying In The Rain
TTITLE13=Faron Young - Four In The Morning
EXTD=
EXTT0=
EXTT1=
EXTT2=
EXTT3=
EXTT4=
EXTT5=
EXTT6=
EXTT7=
EXTT8=
EXTT9=
EXTT10=
EXTT11=
EXTT12=
EXTT13=
PLAYORDER=
